<?xml version="1.0" encoding="utf-8"?>
<!-- Generator: Adobe Illustrator 21.1.0, SVG Export Plug-In . SVG Version: 6.00 Build 0)  -->
<svg version="1.1" id="Слой_1" xmlns="http://www.w3.org/2000/svg" xmlns:xlink="http://www.w3.org/1999/xlink" x="0px" y="0px"
	 viewBox="0 0 255.1 255.1" style="enable-background:new 0 0 255.1 255.1;" xml:space="preserve">
<style type="text/css">
	.st0{fill:#FFFFFF;}
</style>
<g>
	<path d="M135.2,31.6c-1.1-0.3-2.7-0.7-4.3-1.4c-2.9-1.2-5.8-2.3-8.2-4.5c-1.3-1.2-1.3-2.3,0.1-3.1c2.4-1.5,4.8-2.8,7.3-4
		c2.9-1.5,5.9-2.8,8.9-4.1c0.9-0.4,1.7-0.4,2.4,0.4c0.7,0.8,0.5,1.6-0.1,2.3c-0.2,0.3-0.4,0.7-0.5,1.1c-1,3.4-1.9,6.8-2.9,10.2
		c-0.1,0.4-0.2,0.8-0.2,1.3C137.6,31,137.1,31.6,135.2,31.6z M124.6,23.8c0,0.1,0,0.3,0,0.4c0.8,0.3,1.6,0.5,2.3,0.8
		c2.2,0.8,4.4,1.6,6.6,2.3c0.5,0.2,0.9,0.4,1.2-0.4c0.5-1.6,1.1-3.2,1.5-4.8c0.2-0.6,0.1-1.3,0.2-1.9c-0.7,0-1.4,0-2.1,0
		c-0.1,0-0.3,0.1-0.4,0.2c-2.7,1-5.3,2-8,2.9C125.5,23.4,125.1,23.6,124.6,23.8z"/>
	<path d="M194,162.6c0.4,2.2,0.8,4.4,1.1,6.6c0.1,0.7,0.2,1.8,0,2c-0.8,0.4-1.9,0.6-2.6,0.4c-1.9-0.6-3.6-1.6-5.4-2.5
		c-1.2-0.6-2.2-1.3-3.3-2c-1.5-0.9-1.6-2-0.3-3.2c1.1-1,2.2-2,3.3-2.9c1.4-1.1,2.7-2.2,4.1-3.3c0.8-0.6,1.4-0.2,2,0.4
		c1.4,1.3,1.3,2.9,1.3,4.6C194.2,162.6,194.1,162.6,194,162.6z M191.3,161.4c-0.3,0-0.4,0-0.5,0.1c-1.1,1.1-2.3,2.2-3.4,3.3
		c-0.1,0.1,0.1,0.7,0.4,0.9c0.9,0.6,1.9,1.2,2.9,1.7c0.8,0.4,1,0.3,1-0.6c-0.1-1.2-0.1-2.4-0.2-3.6
		C191.4,162.6,191.3,162,191.3,161.4z"/>
	<path d="M86.1,214.3c1.7,0.2,3.4,0.4,5.1,0.6c0.7,0.1,1.4,0.2,2,0.3c0.9,0.1,1.7,0.4,2.1,1.3c0.4,0.9-0.1,1.5-0.6,2.1
		c-1.3,1.5-2.7,3-4,4.5c-0.3,0.3-0.5,0.7-0.7,1.1c-0.7,1.1-1.4,1.2-2.4,0.4c-0.2-0.2-0.5-0.5-0.6-0.7c-1.2-1.9-2.4-3.7-3.5-5.7
		c-1.2-2.1-0.3-4.1,2.3-3.8C85.8,214.4,86,214.4,86.1,214.3C86.1,214.4,86.1,214.4,86.1,214.3z M86.3,217.3c0.6,1,1.2,1.9,1.9,2.8
		c0.2,0.2,0.8,0.4,0.9,0.3c0.6-0.4,1.2-1,1.7-1.5c0.4-0.5,0.2-0.8-0.4-0.9C89,217.7,87.7,217.5,86.3,217.3z"/>
	<path d="M173.6,71c-0.3-0.3-0.9-0.5-1-0.9c-0.1-0.5-0.1-1.2,0.2-1.6c0.5-0.7,1.1-1.3,1.8-1.8c2.3-1.9,4.5-4,6.9-5.7
		c1.1-0.8,2.5-1.1,3.9-1.5c0.9-0.2,1.3,0.3,0.9,1.1c-0.5,1-1.1,2.1-2,2.9c-2,1.8-4.1,3.4-6.2,5c-1,0.8-2.2,1.4-3.3,2.1
		C174.4,70.8,174.1,70.8,173.6,71z"/>
	<path d="M192.4,119.5c-1.3,0.1-2.5,0.2-3.8,0.2c-0.5,0-1.2-0.3-1.4-0.7c-0.3-0.7,0.1-1.3,0.8-1.5c1.9-0.5,3.8-1,5.7-1.5
		c1.9-0.5,3.7-0.9,5.6-0.5c0.4,0.1,0.8,0.4,1.2,0.6c-0.2,0.4-0.3,0.9-0.7,1.3c-1.6,1.8-3.7,2.3-6.1,2.2
		C193.5,119.5,192.9,119.5,192.4,119.5C192.4,119.5,192.4,119.5,192.4,119.5z"/>
	<path d="M145,226.4c-0.2,0.5-0.5,1.1-0.8,1.7c-0.7-0.3-1.6-0.5-2-1c-0.9-1.2-1.7-2.6-2.3-4c-0.9-2-1.6-4.2-2.3-6.3
		c-0.1-0.4,0.1-1,0.2-1.5c0.5,0.2,1.1,0.2,1.4,0.6c2.3,2.8,4.1,5.8,5.5,9.1C144.8,225.4,144.8,225.8,145,226.4z"/>
	<path d="M165.9,194.2c0.4,0.1,0.7,0.2,0.9,0.3c2.4,1.5,4.9,2.9,7.3,4.5c0.4,0.3,0.7,0.7,0.9,1.1c0.1,0.3,0.1,0.8-0.1,1.1
		c-0.2,0.2-0.7,0.4-1,0.4c-0.7-0.2-1.4-0.5-2.1-0.9c-2.2-1.5-4.4-3-6.5-4.6c-0.3-0.2-0.7-0.8-0.6-0.9
		C165.1,194.7,165.6,194.4,165.9,194.2z"/>
	<path class="st0" d="M124.6,23.8c0.4-0.2,0.9-0.4,1.3-0.6c2.7-1,5.3-2,8-2.9c0.1,0,0.3-0.2,0.4-0.2c0.7,0,1.4,0,2.1,0
		c-0.1,0.7,0,1.3-0.2,1.9c-0.5,1.6-1.1,3.2-1.5,4.8c-0.2,0.8-0.7,0.6-1.2,0.4c-2.2-0.8-4.4-1.5-6.6-2.3c-0.8-0.3-1.6-0.5-2.3-0.8
		C124.6,24.1,124.6,23.9,124.6,23.8z"/>
	<path class="st0" d="M191.3,161.4c0.1,0.6,0.1,1.2,0.1,1.8c0.1,1.2,0.2,2.4,0.2,3.6c0,0.9-0.2,1.1-1,0.6c-1-0.5-2-1.1-2.9-1.7
		c-0.2-0.2-0.5-0.8-0.4-0.9c1.1-1.1,2.2-2.2,3.4-3.3C190.8,161.5,191,161.5,191.3,161.4z"/>
	<path class="st0" d="M86.3,217.3c1.4,0.2,2.7,0.4,4.1,0.6c0.6,0.1,0.8,0.4,0.4,0.9c-0.5,0.6-1.1,1.1-1.7,1.5
		c-0.2,0.1-0.8,0-0.9-0.3C87.5,219.2,86.9,218.2,86.3,217.3z"/>
</g>
</svg>
