<?xml version="1.0" encoding="utf-8"?>
<!-- Generator: Adobe Illustrator 21.1.0, SVG Export Plug-In . SVG Version: 6.00 Build 0)  -->
<svg version="1.1" id="Слой_1" xmlns="http://www.w3.org/2000/svg" xmlns:xlink="http://www.w3.org/1999/xlink" x="0px" y="0px"
	 viewBox="0 0 276.3 246.7" style="enable-background:new 0 0 276.3 246.7;" xml:space="preserve">
<style type="text/css">
	.st0{fill:#FFFFFF;}
</style>
<g>
	<path d="M204.3,44c-1.1-0.4-2.1-0.7-2.9-1.1c-3.3-1.6-6.6-3.1-9.1-6c-1.1-1.3-1.2-2.1,0.4-2.9c2.4-1.2,4.9-2.2,7.4-3.1
		c2.8-1,5.7-1.8,8.5-2.8c0.9-0.3,1.6-0.1,2.2,0.6c0.5,0.7,0,1.3-0.3,1.9c-0.6,1.1-1,2.4-1.5,3.6c-1.1,2.8-2.2,5.6-3.3,8.4
		C205.4,43.2,204.8,43.6,204.3,44z M193.7,35.4c0,0.1,0,0.2-0.1,0.3c2.9,1.4,5.9,2.8,8.8,4.1c0.2,0.1,0.8-0.1,0.9-0.3
		c1.1-2.3,2.1-4.7,3.3-7.4C202.1,33.3,197.9,34.4,193.7,35.4z"/>
	<path d="M34.1,159c0.1,0.4,0.5,1,0.6,1.6c0.5,3,1,6,1.4,9c0,0.2,0,0.3,0,0.5c0,1.8-0.9,2.4-2.5,1.7c-1.8-0.8-3.6-1.5-5.4-2.2
		c-1-0.4-2-0.5-3-0.9c-0.7-0.3-1.4-0.7-1.9-1.2c-0.2-0.3-0.3-1.1-0.1-1.4c2.1-2,3.8-4.5,6.5-5.8c0.5-0.2,1-0.4,1.6-0.5
		C32.1,159.6,32.9,159.4,34.1,159z M27,165.8c2,0.7,3.7,1.3,5.5,1.9c0-1.8,0-3.4,0-5.2C30.3,163.1,28.7,164.2,27,165.8z"/>
	<path d="M244.9,171.4c0.1,3,0.3,5.9,0.4,8.9c0,0.8-0.3,1.2-1.1,1.3c-0.5,0-1.2,0-1.6-0.2c-2.7-1.8-5.5-3.6-8.1-5.4
		c-0.9-0.6-0.8-1.8,0.2-2.4c2.3-1.7,4.7-3.3,7.1-4.8c1.6-1,3.1-0.1,3.3,1.9c0,0.3,0,0.6,0,0.8C245.1,171.4,245,171.4,244.9,171.4z
		 M237.8,174.8c1.3,1,2.4,1.9,3.7,2.7c0.7,0.5,0.8-0.2,0.9-0.7c0.2-2,0.3-4,0.4-6C241.2,172.1,239.6,173.4,237.8,174.8z"/>
	<path d="M135.5,221.9c1.9,0.4,3.9,0.8,5.8,1.3c0.6,0.1,1.3,0.2,1.8,0.5c0.7,0.4,1.5,0.9,1.8,1.6c0.2,0.4-0.4,1.3-0.8,1.7
		c-1.7,1.7-3.5,3.4-5.3,5c-0.7,0.7-1.5,0.6-2.2-0.4c-1-1.6-1.8-3.3-2.6-5c-0.3-0.6-0.5-1.3-0.7-2C133,223.1,134,222,135.5,221.9z
		 M136.2,224.6c0.6,1.1,1,2.1,1.6,3c0.1,0.2,0.7,0.4,0.9,0.3c0.6-0.4,1.2-0.8,1.8-1.4c0.1-0.1,0-0.7-0.2-0.8
		C139,225.4,137.7,225,136.2,224.6z"/>
	<path d="M88.6,28.2c-0.3,0.5-0.6,1.2-1,1.4c-0.4,0.2-1.2-0.1-1.5-0.5c-1-1-1.9-2.1-2.7-3.3c-2-3.1-3.9-6.3-5.8-9.4
		c-0.2-0.4-0.5-0.9-0.5-1.3c-0.1-0.4,0.1-0.8,0.2-1.2c0.4,0.1,0.9,0.1,1.1,0.4c1.8,1.9,3.6,3.8,5.3,5.8c1.6,2,2.9,4.2,4.3,6.3
		C88.2,26.8,88.4,27.4,88.6,28.2z"/>
	<path d="M54.2,204.5c-0.3,0.4-0.5,0.8-0.9,1.2c-2.5,2.3-5.1,4.5-7.6,6.7c-1.2,1-2.4,2.1-3.6,3.1c-0.3,0.3-0.9,0.2-1.3,0.3
		c0-0.5-0.3-1-0.1-1.4c1.5-2.8,3.4-5.2,5.9-7.2c1.8-1.5,3.8-2.8,6.1-3.4C53.3,203.6,53.9,203.5,54.2,204.5z"/>
	<path d="M26.1,56.7c0-1.3,1-2,1.8-1.6c3.7,1.9,7.8,3.1,10.5,6.5c0.3,0.4,0.4,1,0.6,1.4c-0.4,0.2-0.8,0.5-1.2,0.4
		c-2.6-0.3-4.8-1.6-6.9-3c-1.3-0.8-2.5-1.6-3.7-2.6C26.6,57.6,26.3,57,26.1,56.7z"/>
	<path d="M192.9,227.8c-0.2,0.3-0.3,1-0.5,1c-0.5,0.1-1.2,0-1.4-0.3c-1.1-1.3-2.3-2.5-3.2-4c-1.1-1.7-1.9-3.6-2.8-5.4
		c-0.2-0.3-0.1-0.8-0.1-1.2c0.4,0.1,1,0.1,1.2,0.3c2.5,2.3,4.6,5,6.4,7.9C192.7,226.6,192.8,227.2,192.9,227.8z"/>
	<path d="M259.8,127.3c0.3,0.1,0.8,0.2,1.4,0.4c-0.3,0.5-0.6,1.4-1.1,1.6c-2.1,1-4.3,1.8-6.5,2.6c-1,0.3-2.1,0.5-3.2,0.6
		c-0.4,0-0.8-0.3-1.2-0.4c0.1-0.4,0.2-1,0.5-1.2c0.4-0.4,1-0.7,1.5-0.9C253.9,128.9,256.5,127.5,259.8,127.3z"/>
	<path d="M87.3,218.7c-0.4,1-0.6,2.1-1.1,3c-1,2-2.1,3.9-3.2,5.9c-0.2,0.4-0.5,0.8-0.9,1.1c-0.3,0.2-0.8,0.3-1.2,0.4
		c-0.1-0.4-0.4-0.8-0.3-1.2c0.2-0.8,0.5-1.6,0.8-2.4c1.1-2.2,2.2-4.4,3.3-6.6c0.2-0.4,0.6-0.7,1-1c0.3-0.2,0.7-0.4,0.9-0.3
		C87,217.9,87.1,218.3,87.3,218.7z"/>
	<path d="M245.9,76c0.2-0.3,0.8-0.4,1-0.5c0.3-0.1,0.7,0,1,0c0,0.3,0.1,0.8,0,1c-0.9,1-1.7,2-2.8,2.7c-1.8,1.2-3.6,2.3-5.5,3.4
		c-0.7,0.4-1.5,0.5-2.2,0.8c0-0.1-0.1-0.1-0.1-0.2c-0.2,0-0.4,0.1-0.6,0c-0.4-0.2-0.9-0.4-1.3-0.7c0.3-0.3,0.4-0.7,0.8-1
		c1.2-0.9,2.4-1.7,3.7-2.5c0.3-0.2,1-0.8,1.4-0.8"/>
	<path d="M215.2,199.9c0.4,0.2,0.8,0.3,1,0.5c1.8,1.4,3.7,2.8,5.5,4.3c0.5,0.4,1,1.1,1.3,1.7c0.3,0.7-0.1,1.2-0.9,1.1
		c-0.3,0-0.6-0.1-0.8-0.3c-2-1.6-4-3.3-6-4.9c-0.3-0.2-0.5-0.5-0.7-0.8c-0.2-0.3-0.5-0.8-0.4-1C214.4,200.3,214.8,200.1,215.2,199.9
		z"/>
	<path d="M17.7,109.3c0.8,0,1.5-0.1,2.3,0c0.5,0,1.1,0.2,1.6,0.4c0.4,0.2,0.8,0.8,0.8,1.2c0,0.3-0.6,0.8-1,0.9
		c-2.3,0.7-4.6,0.3-6.9-0.4c-0.4-0.1-0.9-0.7-0.8-1c0.1-0.4,0.6-0.9,1-1C15.6,109.3,16.6,109.3,17.7,109.3
		C17.7,109.3,17.7,109.3,17.7,109.3z"/>
	<path d="M234.2,83.5c3.5-4.1,2.9-1.2,3.6-0.2c-0.7,0.3-2,1.1-2.6,1.2C235,84.5,234.2,84,234.2,83.5z"/>
	<path class="st0" d="M193.7,35.4c4.2-1.1,8.4-2.1,12.9-3.3c-1.2,2.7-2.2,5-3.3,7.4c-0.1,0.2-0.7,0.4-0.9,0.3
		c-2.9-1.3-5.9-2.8-8.8-4.1C193.6,35.6,193.7,35.5,193.7,35.4z"/>
	<path class="st0" d="M27,165.8c1.7-1.6,3.3-2.7,5.5-3.3c0,1.8,0,3.4,0,5.2C30.7,167.1,29,166.5,27,165.8z"/>
	<path class="st0" d="M237.8,174.8c1.8-1.4,3.4-2.7,5-4c-0.1,2-0.3,4-0.4,6c0,0.5-0.2,1.1-0.9,0.7
		C240.3,176.7,239.2,175.8,237.8,174.8z"/>
	<path class="st0" d="M136.2,224.6c1.4,0.4,2.8,0.8,4.1,1.2c0.1,0,0.3,0.7,0.2,0.8c-0.5,0.5-1.1,1-1.8,1.4c-0.2,0.1-0.8-0.1-0.9-0.3
		C137.3,226.7,136.8,225.7,136.2,224.6z"/>
</g>
</svg>
