<svg xmlns="http://www.w3.org/2000/svg" viewBox="2338.494 1355.116 101.737 45.718">
  <defs>
    <style>
      .cls-1 {
        fill: #707070;
      }

      .cls-2 {
        fill: #292929;
      }
    </style>
  </defs>
  <g id="Symbol_1_1" data-name="Symbol 1 – 1" transform="translate(2285 1312)">
    <path id="Path_39" data-name="Path 39" class="cls-1" d="M2.48,0V-21.483H16.864v4.061H7.316v4.495H15.81v4.061H7.316V0ZM32.55-4.154V0H18.2V-21.483h4.836V-4.154ZM42.749.434q-5.239,0-7.983-2.914t-2.743-8.277a12.728,12.728,0,0,1,.837-4.759,10.253,10.253,0,0,1,2.294-3.534,9.591,9.591,0,0,1,3.472-2.186A12.524,12.524,0,0,1,43-21.979a14.009,14.009,0,0,1,2.48.2,16.08,16.08,0,0,1,1.953.465,9.638,9.638,0,0,1,1.4.542q.558.279.806.434L48.236-16.43a11.7,11.7,0,0,0-2.31-.9,11.021,11.021,0,0,0-2.992-.372,6.608,6.608,0,0,0-2.185.372,4.942,4.942,0,0,0-1.891,1.194,5.946,5.946,0,0,0-1.317,2.123,8.909,8.909,0,0,0-.5,3.162,11.286,11.286,0,0,0,.326,2.774,5.885,5.885,0,0,0,1.054,2.217,5.06,5.06,0,0,0,1.907,1.472,6.785,6.785,0,0,0,2.852.543,13,13,0,0,0,1.891-.124,14.041,14.041,0,0,0,1.488-.295,7.813,7.813,0,0,0,1.147-.387q.5-.217.9-.4l1.333,3.875A11.33,11.33,0,0,1,47.058-.062,16.8,16.8,0,0,1,42.749.434ZM57.257-21.731q4.836,0,7.409,1.72a5.979,5.979,0,0,1,2.573,5.347A6.044,6.044,0,0,1,66.2-10.99a6.841,6.841,0,0,1-2.992,2.217q.651.806,1.364,1.844t1.41,2.17q.7,1.132,1.349,2.356T68.541,0H63.116q-.589-1.054-1.194-2.139t-1.24-2.108q-.636-1.023-1.256-1.937t-1.24-1.659H55.8V0H50.964V-21.173a27.416,27.416,0,0,1,3.271-.434Q55.924-21.731,57.257-21.731Zm.279,4.123q-.527,0-.946.031t-.79.062v5.828h1.364a8.237,8.237,0,0,0,3.906-.682,2.465,2.465,0,0,0,1.178-2.325,2.364,2.364,0,0,0-1.194-2.248A7.38,7.38,0,0,0,57.536-17.608Zm17.732-3.875q.558,1.023,1.286,2.526T78.074-15.7q.791,1.751,1.565,3.58L81.1-8.68l1.457-3.441q.775-1.829,1.565-3.58t1.519-3.255q.728-1.5,1.286-2.526h4.4q.31,2.139.573,4.789t.465,5.518q.2,2.867.372,5.751T93.031,0H88.319q-.093-3.131-.248-6.82t-.465-7.44q-.558,1.3-1.24,2.883T85.018-8.215q-.667,1.581-1.286,3.022T82.677-2.728H79.3q-.434-1.023-1.054-2.465T76.958-8.215q-.667-1.581-1.349-3.162t-1.24-2.883q-.31,3.751-.465,7.44T73.656,0H68.944q.124-2.542.295-5.425t.372-5.751q.2-2.868.465-5.518t.574-4.789Z" transform="translate(52 70)"/>
    <path id="Path_6" data-name="Path 6" class="cls-1" d="M2,0H8.071V6.657Z" transform="translate(147.16 43.116)"/>
    <path id="Path_38" data-name="Path 38" class="cls-2" d="M2.48,0V-21.483H16.864v4.061H7.316v4.495H15.81v4.061H7.316V0ZM32.55-4.154V0H18.2V-21.483h4.836V-4.154ZM42.749.434q-5.239,0-7.983-2.914t-2.743-8.277a12.728,12.728,0,0,1,.837-4.759,10.253,10.253,0,0,1,2.294-3.534,9.591,9.591,0,0,1,3.472-2.186A12.524,12.524,0,0,1,43-21.979a14.009,14.009,0,0,1,2.48.2,16.08,16.08,0,0,1,1.953.465,9.638,9.638,0,0,1,1.4.542q.558.279.806.434L48.236-16.43a11.7,11.7,0,0,0-2.31-.9,11.021,11.021,0,0,0-2.992-.372,6.608,6.608,0,0,0-2.185.372,4.942,4.942,0,0,0-1.891,1.194,5.946,5.946,0,0,0-1.317,2.123,8.909,8.909,0,0,0-.5,3.162,11.286,11.286,0,0,0,.326,2.774,5.885,5.885,0,0,0,1.054,2.217,5.06,5.06,0,0,0,1.907,1.472,6.785,6.785,0,0,0,2.852.543,13,13,0,0,0,1.891-.124,14.041,14.041,0,0,0,1.488-.295,7.813,7.813,0,0,0,1.147-.387q.5-.217.9-.4l1.333,3.875A11.33,11.33,0,0,1,47.058-.062,16.8,16.8,0,0,1,42.749.434ZM57.257-21.731q4.836,0,7.409,1.72a5.979,5.979,0,0,1,2.573,5.347A6.044,6.044,0,0,1,66.2-10.99a6.841,6.841,0,0,1-2.992,2.217q.651.806,1.364,1.844t1.41,2.17q.7,1.132,1.349,2.356T68.541,0H63.116q-.589-1.054-1.194-2.139t-1.24-2.108q-.636-1.023-1.256-1.937t-1.24-1.659H55.8V0H50.964V-21.173a27.416,27.416,0,0,1,3.271-.434Q55.924-21.731,57.257-21.731Zm.279,4.123q-.527,0-.946.031t-.79.062v5.828h1.364a8.237,8.237,0,0,0,3.906-.682,2.465,2.465,0,0,0,1.178-2.325,2.364,2.364,0,0,0-1.194-2.248A7.38,7.38,0,0,0,57.536-17.608Zm17.732-3.875q.558,1.023,1.286,2.526T78.074-15.7q.791,1.751,1.565,3.58L81.1-8.68l1.457-3.441q.775-1.829,1.565-3.58t1.519-3.255q.728-1.5,1.286-2.526h4.4q.31,2.139.573,4.789t.465,5.518q.2,2.867.372,5.751T93.031,0H88.319q-.093-3.131-.248-6.82t-.465-7.44q-.558,1.3-1.24,2.883T85.018-8.215q-.667,1.581-1.286,3.022T82.677-2.728H79.3q-.434-1.023-1.054-2.465T76.958-8.215q-.667-1.581-1.349-3.162t-1.24-2.883q-.31,3.751-.465,7.44T73.656,0H68.944q.124-2.542.295-5.425t.372-5.751q.2-2.868.465-5.518t.574-4.789Z" transform="translate(52 70)"/>
    <path id="Path_7" data-name="Path 7" class="cls-2" d="M2,0H8.071V6.657Z" transform="translate(147.16 43.116)"/>
    <path id="Path_40" data-name="Path 40" class="cls-2" d="M4.3-.792A4.117,4.117,0,0,0,6.57-1.323a1.9,1.9,0,0,0,.81-1.719,2.285,2.285,0,0,0-.261-1.143,2.443,2.443,0,0,0-.693-.774,4.576,4.576,0,0,0-.99-.54q-.558-.225-1.17-.477a13.874,13.874,0,0,1-1.386-.63,4.8,4.8,0,0,1-1.044-.729,2.758,2.758,0,0,1-.657-.927A3.074,3.074,0,0,1,.954-9.486a2.894,2.894,0,0,1,1.062-2.43,4.693,4.693,0,0,1,2.952-.828,6.747,6.747,0,0,1,.99.072,7.578,7.578,0,0,1,.909.189,6.862,6.862,0,0,1,.774.261,3.1,3.1,0,0,1,.585.306L7.794-10.89a4.349,4.349,0,0,0-1.269-.576,5.777,5.777,0,0,0-1.611-.216,4.735,4.735,0,0,0-1.089.117,2.366,2.366,0,0,0-.855.378,1.871,1.871,0,0,0-.567.657,2.036,2.036,0,0,0-.207.954,2.007,2.007,0,0,0,.216.972,2.106,2.106,0,0,0,.6.684,4.822,4.822,0,0,0,.909.522q.522.234,1.134.486.738.306,1.4.612A5.017,5.017,0,0,1,7.6-5.58,3.061,3.061,0,0,1,8.37-4.572a3.324,3.324,0,0,1,.288,1.458A2.919,2.919,0,0,1,7.479-.576,5.381,5.381,0,0,1,4.284.27,8.809,8.809,0,0,1,2.97.18,8.387,8.387,0,0,1,1.908-.045a6.226,6.226,0,0,1-.792-.279,4.853,4.853,0,0,1-.5-.252l.4-1.062q.18.108.486.252a6.268,6.268,0,0,0,.72.279,6.708,6.708,0,0,0,.936.225A6.8,6.8,0,0,0,4.3-.792Zm19.674-11.79a6.377,6.377,0,0,1,3.942,1.008,3.414,3.414,0,0,1,1.3,2.862A3.97,3.97,0,0,1,28.836-6.9,3.077,3.077,0,0,1,27.756-5.7a4.9,4.9,0,0,1-1.719.666,11.56,11.56,0,0,1-2.295.207H22.05V0H20.826V-12.24a8.758,8.758,0,0,1,1.521-.261Q23.22-12.582,23.976-12.582Zm.054,1.062q-.684,0-1.161.045t-.819.081v5.508H23.6A12.464,12.464,0,0,0,25.389-6a3.989,3.989,0,0,0,1.368-.432,2.183,2.183,0,0,0,.873-.873,2.937,2.937,0,0,0,.306-1.422A2.567,2.567,0,0,0,27.6-10.1a2.458,2.458,0,0,0-.882-.855,3.865,3.865,0,0,0-1.251-.441A8.136,8.136,0,0,0,24.03-11.52ZM49.068,0q-.342-.918-.648-1.764T47.826-3.42H41.76q-.306.81-.612,1.656T40.518,0H39.24q.72-1.944,1.35-3.627t1.233-3.186q.6-1.5,1.2-2.889t1.26-2.772h1.08q.666,1.386,1.26,2.772t1.2,2.889q.6,1.5,1.233,3.186T50.418,0ZM44.784-11.07Q44.1-9.522,43.461-7.92T42.138-4.464h5.31q-.684-1.854-1.332-3.456T44.784-11.07ZM67.158.27a5.759,5.759,0,0,1-2.241-.432,5.1,5.1,0,0,1-1.8-1.26,5.967,5.967,0,0,1-1.206-2.043,8.123,8.123,0,0,1-.441-2.781,7.568,7.568,0,0,1,.477-2.781,6.182,6.182,0,0,1,1.269-2.043,5.238,5.238,0,0,1,1.836-1.251,5.746,5.746,0,0,1,2.178-.423,8.315,8.315,0,0,1,1.278.09,7.065,7.065,0,0,1,1.008.225,7.1,7.1,0,0,1,.738.27,3.227,3.227,0,0,1,.468.243l-.4,1.062a7.146,7.146,0,0,0-1.143-.531,4.912,4.912,0,0,0-1.719-.261,4.906,4.906,0,0,0-2.043.4,4.034,4.034,0,0,0-1.467,1.116,4.835,4.835,0,0,0-.891,1.71,7.624,7.624,0,0,0-.3,2.2,7.855,7.855,0,0,0,.3,2.241,4.8,4.8,0,0,0,.873,1.7,3.854,3.854,0,0,0,1.413,1.08,4.612,4.612,0,0,0,1.917.378,7.475,7.475,0,0,0,1.989-.225,5.717,5.717,0,0,0,1.215-.459l.342,1.044a2.084,2.084,0,0,1-.432.207q-.306.117-.774.243a8.458,8.458,0,0,1-1.08.207A10.491,10.491,0,0,1,67.158.27ZM82.836,0V-12.474h7.2v1.062H84.06v4.338h5.328V-6.03H84.06v4.968H90.5V0Z" transform="translate(52.882 88.564)"/>
  </g>
</svg>
